<svg version="1.2" xmlns="http://www.w3.org/2000/svg" viewBox="0 0 414 415" width="414" height="415">
	<title>day-svg</title>
	<defs>
		<clipPath clipPathUnits="userSpaceOnUse" id="cp1">
			<path d="m5 0h414v415h-414z"/>
		</clipPath>
	</defs>
	<style>
		.s0 { fill: #8fb2ea } 
		.s1 { fill: #ffffff } 
		.s2 { opacity: .5;fill: #ffffff } 
	</style>
	<g id="Clip-Path: day" clip-path="url(#cp1)">
		<g id="day">
			<path id="Layer" class="s0" d="m5 0h414v415h-414z"/>
			<path id="cloud" class="s1" d="m227.6 98.6c7.8 7.8 12.2 18.4 12.2 29.5 0 11-4.4 21.6-12.2 29.4-7.8 7.9-18.4 12.3-29.5 12.3h-140.3c-9.9-0.1-19.3-4.1-26.4-11-7-7-11-16.5-11.2-26.4-0.1-9.9 3.6-19.4 10.4-26.6 6.8-7.2 16.2-11.4 26.1-11.8-4-11.3-3.4-23.8 1.7-34.6 5.1-10.9 14.3-19.3 25.6-23.4 11.3-4.1 23.7-3.5 34.6 1.5 10.9 5.1 19.4 14.2 23.6 25.5 4.6-2.2 9.7-3.3 14.9-3.2 5.1 0.1 10.2 1.4 14.8 3.7 4.6 2.3 8.6 5.7 11.7 9.8 3.1 4.1 5.2 8.8 6.3 13.9q1-0.2 2-0.4 1-0.1 2.1-0.2 1-0.1 2-0.2 1.1-0.1 2.1-0.1c11.1 0.1 21.7 4.4 29.5 12.3z"/>
			<path id="cloud-2" class="s2" d="m290.9 90.4c6.9 6.8 10.7 16.1 10.7 25.8 0 9.7-3.8 19-10.7 25.9-6.8 6.8-16.1 10.7-25.8 10.7h-122.9c-8.8 0-17.2-3.4-23.4-9.5-6.3-6.2-9.8-14.5-10-23.2-0.1-8.8 3.2-17.2 9.3-23.5 6-6.3 14.3-10 23.1-10.2-3.6-9.9-3-20.8 1.5-30.4 4.5-9.5 12.5-16.8 22.4-20.4 9.9-3.6 20.8-3.1 30.3 1.3 9.6 4.4 17 12.4 20.6 22.3 4.1-1.9 8.6-2.9 13.1-2.8 4.5 0.1 9 1.2 13 3.2 4 2.1 7.5 5 10.2 8.6 2.8 3.6 4.7 7.8 5.5 12.2q0.9-0.2 1.8-0.3 0.9-0.2 1.8-0.3 0.9 0 1.9-0.1 0.9 0 1.8 0c9.7 0 19 3.8 25.8 10.7z"/>
			<path id="cloud-3" class="s1" d="m349.5 193.6q0.7 0 1.3 0 0.7 0 1.3 0.1 0.7 0.1 1.3 0.2 0.7 0.1 1.3 0.2c0.7-3.2 2-6.2 4-8.7 1.9-2.6 4.4-4.7 7.3-6.2 2.9-1.5 6.1-2.3 9.3-2.3 3.3-0.1 6.5 0.6 9.4 2 2.6-7.2 8-13 14.8-16.1 6.9-3.2 14.8-3.6 21.9-1 7.1 2.6 12.9 7.9 16.1 14.7 3.2 6.9 3.6 14.8 1 21.9 6.3 0.2 12.2 2.8 16.5 7.4 4.4 4.5 6.7 10.5 6.6 16.8-0.1 6.3-2.6 12.2-7.1 16.6-4.4 4.4-10.4 6.9-16.7 6.9h-88.3c-7 0-13.7-2.7-18.7-7.6-4.9-5-7.7-11.7-7.7-18.7 0-7 2.8-13.7 7.7-18.6 5-4.9 11.7-7.7 18.7-7.6z"/>
			<path id="cloud-4" class="s1" d="m-14.2 255.2q0.8 0 1.6 0 0.9 0.1 1.7 0.2 0.9 0 1.7 0.2 0.8 0.1 1.6 0.3c0.9-4.1 2.6-8 5.1-11.3 2.5-3.3 5.8-6 9.5-7.9 3.7-1.9 7.8-2.9 12-3 4.1-0.1 8.3 0.8 12.1 2.6 3.3-9.2 10.1-16.7 19-20.8 8.8-4.2 18.9-4.6 28.1-1.3 9.2 3.3 16.7 10.2 20.8 19 4.1 8.9 4.6 19 1.2 28.2 8.1 0.2 15.7 3.6 21.3 9.4 5.5 5.9 8.6 13.6 8.5 21.7-0.2 8-3.4 15.7-9.2 21.4-5.7 5.6-13.4 8.8-21.5 8.8h-113.5c-9 0-17.6-3.5-23.9-9.9-6.3-6.3-9.9-14.9-9.9-23.9 0-8.9 3.6-17.5 9.9-23.8 6.3-6.4 14.9-9.9 23.9-9.9z"/>
		</g>
	</g>
</svg>